<?xml version="1.0" encoding="UTF-8"?>
<!DOCTYPE svg PUBLIC "-//W3C//DTD SVG 1.1//EN" "http://www.w3.org/Graphics/SVG/1.1/DTD/svg11.dtd">
<svg xmlns="http://www.w3.org/2000/svg" xmlns:xlink="http://www.w3.org/1999/xlink" version="1.1" width="2520px" height="1260px" viewBox="-0.5 -0.5 2520 1260"><defs/><g><g><rect x="0" y="0" width="2520" height="1170" fill="none" stroke="none" pointer-events="all"/></g><g><path d="M 1590 870 L 1485.49 974.51" fill="none" stroke="#008080" stroke-width="4.5" stroke-miterlimit="10" pointer-events="stroke"/><path d="M 1473.56 986.44 L 1481.51 962.58 L 1485.49 974.51 L 1497.42 978.49 Z" fill="#008080" stroke="#008080" stroke-width="4.5" stroke-miterlimit="10" pointer-events="all"/></g><g><path d="M 990 870 L 1094.51 974.51" fill="none" stroke="#008080" stroke-width="4.5" stroke-miterlimit="10" pointer-events="stroke"/><path d="M 1106.44 986.44 L 1082.58 978.49 L 1094.51 974.51 L 1098.49 962.58 Z" fill="#008080" stroke="#008080" stroke-width="4.5" stroke-miterlimit="10" pointer-events="all"/></g><g><path d="M 1230 630 L 1009.59 740.2" fill="none" stroke="#008080" stroke-width="4.5" stroke-miterlimit="10" pointer-events="stroke"/><path d="M 994.5 747.75 L 1009.59 727.63 L 1009.59 740.2 L 1019.66 747.75 Z" fill="#008080" stroke="#008080" stroke-width="4.5" stroke-miterlimit="10" pointer-events="all"/></g><g><rect x="1890" y="30" width="120" height="120" fill="rgb(255, 255, 255)" stroke="#008080" stroke-width="4.5" stroke-dasharray="13.5 13.5" pointer-events="all"/></g><g><g fill="#008080" font-family="Verdana" font-weight="bold" text-anchor="middle" font-size="48px"><text x="1949.5" y="110.5">8</text></g></g><g><path d="M 1890 150 L 1785.49 254.51" fill="none" stroke="#008080" stroke-width="4.5" stroke-miterlimit="10" pointer-events="stroke"/><path d="M 1773.56 266.44 L 1781.51 242.58 L 1785.49 254.51 L 1797.42 258.49 Z" fill="#008080" stroke="#008080" stroke-width="4.5" stroke-miterlimit="10" pointer-events="all"/></g><g><rect x="150" y="270" width="120" height="120" fill="rgb(255, 255, 255)" stroke="#008080" stroke-width="4.5" stroke-dasharray="13.5 13.5" pointer-events="all"/></g><g><g fill="#008080" font-family="Verdana" font-weight="bold" text-anchor="middle" font-size="48px"><text x="209.5" y="350.5">8</text></g></g><g><path d="M 690 150 L 910.41 260.2" fill="none" stroke="#008080" stroke-width="4.5" stroke-miterlimit="10" pointer-events="stroke"/><path d="M 925.5 267.75 L 900.34 267.75 L 910.41 260.2 L 910.41 247.63 Z" fill="#008080" stroke="#008080" stroke-width="4.5" stroke-miterlimit="10" pointer-events="all"/></g><g><path d="M 570 150 L 570 248.09" fill="none" stroke="#008080" stroke-width="4.5" stroke-miterlimit="10" pointer-events="stroke"/><path d="M 570 264.97 L 558.75 242.47 L 570 248.09 L 581.25 242.47 Z" fill="#008080" stroke="#008080" stroke-width="4.5" stroke-miterlimit="10" pointer-events="all"/></g><g><path d="M 450 150 L 229.59 260.2" fill="none" stroke="#008080" stroke-width="4.5" stroke-miterlimit="10" pointer-events="stroke"/><path d="M 214.5 267.75 L 229.59 247.63 L 229.59 260.2 L 239.66 267.75 Z" fill="#008080" stroke="#008080" stroke-width="4.5" stroke-miterlimit="10" pointer-events="all"/></g><g><rect x="30" y="270" width="120" height="120" fill="rgb(255, 255, 255)" stroke="#008080" stroke-width="4.5" pointer-events="all"/></g><g><g fill="#008080" font-family="Verdana" font-weight="bold" text-anchor="middle" font-size="48px"><text x="89.5" y="350.5">2</text></g></g><g><rect x="270" y="270" width="120" height="120" fill="rgb(255, 255, 255)" stroke="#008080" stroke-width="4.5" pointer-events="all"/></g><g><g fill="#008080" font-family="Verdana" font-weight="bold" text-anchor="middle" font-size="48px"><text x="329.5" y="350.5">10</text></g></g><g><rect x="450" y="30" width="120" height="120" fill="rgb(255, 255, 255)" stroke="#008080" stroke-width="4.5" pointer-events="all"/></g><g><g fill="#008080" font-family="Verdana" font-weight="bold" text-anchor="middle" font-size="48px"><text x="509.5" y="110.5">15</text></g></g><g><rect x="570" y="30" width="120" height="120" fill="rgb(255, 255, 255)" stroke="#008080" stroke-width="4.5" pointer-events="all"/></g><g><g fill="#008080" font-family="Verdana" font-weight="bold" text-anchor="middle" font-size="48px"><text x="629.5" y="110.5">40</text></g></g><g><rect x="450" y="270" width="120" height="120" fill="rgb(255, 255, 255)" stroke="#008080" stroke-width="4.5" pointer-events="all"/></g><g><g fill="#008080" font-family="Verdana" font-weight="bold" text-anchor="middle" font-size="48px"><text x="509.5" y="350.5">30</text></g></g><g><rect x="930" y="270" width="120" height="120" fill="rgb(255, 255, 255)" stroke="#008080" stroke-width="4.5" pointer-events="all"/></g><g><g fill="#008080" font-family="Verdana" font-weight="bold" text-anchor="middle" font-size="48px"><text x="989.5" y="350.5">80</text></g></g><g><rect x="570" y="270" width="120" height="120" fill="rgb(255, 255, 255)" stroke="#008080" stroke-width="4.5" pointer-events="all"/></g><g><g fill="#008080" font-family="Verdana" font-weight="bold" text-anchor="middle" font-size="48px"><text x="629.5" y="350.5">36</text></g></g><g><rect x="810" y="270" width="120" height="120" fill="rgb(255, 255, 255)" stroke="#008080" stroke-width="4.5" pointer-events="all"/></g><g><g fill="#008080" font-family="Verdana" font-weight="bold" text-anchor="middle" font-size="48px"><text x="869.5" y="350.5">64</text></g></g><g><path d="M 2250 150 L 2354.51 254.51" fill="none" stroke="#008080" stroke-width="4.5" stroke-miterlimit="10" pointer-events="stroke"/><path d="M 2366.44 266.44 L 2342.58 258.49 L 2354.51 254.51 L 2358.49 242.58 Z" fill="#008080" stroke="#008080" stroke-width="4.5" stroke-miterlimit="10" pointer-events="all"/></g><g><path d="M 2070 150 L 2070 248.09" fill="none" stroke="#008080" stroke-width="4.5" stroke-miterlimit="10" pointer-events="stroke"/><path d="M 2070 264.97 L 2058.75 242.47 L 2070 248.09 L 2081.25 242.47 Z" fill="#008080" stroke="#008080" stroke-width="4.5" stroke-miterlimit="10" pointer-events="all"/></g><g><rect x="1650" y="270" width="120" height="120" fill="rgb(255, 255, 255)" stroke="#008080" stroke-width="4.5" pointer-events="all"/></g><g><g fill="#008080" font-family="Verdana" font-weight="bold" text-anchor="middle" font-size="48px"><text x="1709.5" y="350.5">2</text></g></g><g><rect x="1770" y="270" width="120" height="120" fill="rgb(255, 255, 255)" stroke="#008080" stroke-width="4.5" pointer-events="all"/></g><g><g fill="#008080" font-family="Verdana" font-weight="bold" text-anchor="middle" font-size="48px"><text x="1829.5" y="350.5">10</text></g></g><g><rect x="2010" y="30" width="120" height="120" fill="rgb(255, 255, 255)" stroke="#008080" stroke-width="4.5" pointer-events="all"/></g><g><g fill="#008080" font-family="Verdana" font-weight="bold" text-anchor="middle" font-size="48px"><text x="2069.5" y="110.5">15</text></g></g><g><rect x="2130" y="30" width="120" height="120" fill="rgb(255, 255, 255)" stroke="#008080" stroke-width="4.5" pointer-events="all"/></g><g><g fill="#008080" font-family="Verdana" font-weight="bold" text-anchor="middle" font-size="48px"><text x="2189.5" y="110.5">40</text></g></g><g><rect x="1950" y="270" width="120" height="120" fill="rgb(255, 255, 255)" stroke="#008080" stroke-width="4.5" pointer-events="all"/></g><g><g fill="#008080" font-family="Verdana" font-weight="bold" text-anchor="middle" font-size="48px"><text x="2009.5" y="350.5">30</text></g></g><g><rect x="2370" y="270" width="120" height="120" fill="rgb(255, 255, 255)" stroke="#008080" stroke-width="4.5" pointer-events="all"/></g><g><g fill="#008080" font-family="Verdana" font-weight="bold" text-anchor="middle" font-size="48px"><text x="2429.5" y="350.5">80</text></g></g><g><rect x="2070" y="270" width="120" height="120" fill="rgb(255, 255, 255)" stroke="#008080" stroke-width="4.5" pointer-events="all"/></g><g><g fill="#008080" font-family="Verdana" font-weight="bold" text-anchor="middle" font-size="48px"><text x="2129.5" y="350.5">36</text></g></g><g><rect x="2250" y="270" width="120" height="120" fill="rgb(255, 255, 255)" stroke="#008080" stroke-width="4.5" pointer-events="all"/></g><g><g fill="#008080" font-family="Verdana" font-weight="bold" text-anchor="middle" font-size="48px"><text x="2309.5" y="350.5">64</text></g></g><g><rect x="1080" y="135" width="510" height="60" fill="none" stroke="none" pointer-events="all"/></g><g><g fill="#008080" font-family="Verdana" text-anchor="middle" font-size="48px"><text x="1334.5" y="185.5">Pass 8 up one level.</text></g></g><g><path d="M 1080 210 L 1598.09 210" fill="none" stroke="#008080" stroke-width="4.5" stroke-miterlimit="10" pointer-events="stroke"/><path d="M 1614.97 210 L 1592.47 221.25 L 1598.09 210 L 1592.47 198.75 Z" fill="#008080" stroke="#008080" stroke-width="4.5" stroke-miterlimit="10" pointer-events="all"/></g><g><path d="M 870 870 L 765.49 974.51" fill="none" stroke="#008080" stroke-width="4.5" stroke-miterlimit="10" pointer-events="stroke"/><path d="M 753.56 986.44 L 761.51 962.58 L 765.49 974.51 L 777.42 978.49 Z" fill="#008080" stroke="#008080" stroke-width="4.5" stroke-miterlimit="10" pointer-events="all"/></g><g><path d="M 1710 870 L 1814.51 974.51" fill="none" stroke="#008080" stroke-width="4.5" stroke-miterlimit="10" pointer-events="stroke"/><path d="M 1826.44 986.44 L 1802.58 978.49 L 1814.51 974.51 L 1818.49 962.58 Z" fill="#008080" stroke="#008080" stroke-width="4.5" stroke-miterlimit="10" pointer-events="all"/></g><g><rect x="630" y="990" width="120" height="120" fill="rgb(255, 255, 255)" stroke="#008080" stroke-width="4.5" pointer-events="all"/></g><g><g fill="#008080" font-family="Verdana" font-weight="bold" text-anchor="middle" font-size="48px"><text x="689.5" y="1070.5">2</text></g></g><g><rect x="1110" y="990" width="120" height="120" fill="rgb(255, 255, 255)" stroke="#008080" stroke-width="4.5" pointer-events="all"/></g><g><g fill="#008080" font-family="Verdana" font-weight="bold" text-anchor="middle" font-size="48px"><text x="1169.5" y="1070.5">10</text></g></g><g><rect x="1230" y="510" width="120" height="120" fill="rgb(255, 255, 255)" stroke="#008080" stroke-width="4.5" pointer-events="all"/></g><g><g fill="#008080" font-family="Verdana" font-weight="bold" text-anchor="middle" font-size="48px"><text x="1289.5" y="590.5">15</text></g></g><g><rect x="1590" y="750" width="120" height="120" fill="rgb(255, 255, 255)" stroke="#008080" stroke-width="4.5" pointer-events="all"/></g><g><g fill="#008080" font-family="Verdana" font-weight="bold" text-anchor="middle" font-size="48px"><text x="1649.5" y="830.5">40</text></g></g><g><rect x="1350" y="990" width="120" height="120" fill="rgb(255, 255, 255)" stroke="#008080" stroke-width="4.5" pointer-events="all"/></g><g><g fill="#008080" font-family="Verdana" font-weight="bold" text-anchor="middle" font-size="48px"><text x="1409.5" y="1070.5">30</text></g></g><g><rect x="1830" y="990" width="120" height="120" fill="rgb(255, 255, 255)" stroke="#008080" stroke-width="4.5" pointer-events="all"/></g><g><g fill="#008080" font-family="Verdana" font-weight="bold" text-anchor="middle" font-size="48px"><text x="1889.5" y="1070.5">80</text></g></g><g><rect x="1470" y="990" width="120" height="120" fill="rgb(255, 255, 255)" stroke="#008080" stroke-width="4.5" pointer-events="all"/></g><g><g fill="#008080" font-family="Verdana" font-weight="bold" text-anchor="middle" font-size="48px"><text x="1529.5" y="1070.5">36</text></g></g><g><rect x="1710" y="990" width="120" height="120" fill="rgb(255, 255, 255)" stroke="#008080" stroke-width="4.5" pointer-events="all"/></g><g><g fill="#008080" font-family="Verdana" font-weight="bold" text-anchor="middle" font-size="48px"><text x="1769.5" y="1070.5">64</text></g></g><g><rect x="870" y="750" width="120" height="120" fill="rgb(255, 255, 255)" stroke="#008080" stroke-width="4.5" pointer-events="all"/></g><g><g fill="#008080" font-family="Verdana" font-weight="bold" text-anchor="middle" font-size="48px"><text x="929.5" y="830.5">8</text></g></g><g><path d="M 1350 630 L 1570.41 740.2" fill="none" stroke="#008080" stroke-width="4.5" stroke-miterlimit="10" pointer-events="stroke"/><path d="M 1585.5 747.75 L 1560.34 747.75 L 1570.41 740.2 L 1570.41 727.63 Z" fill="#008080" stroke="#008080" stroke-width="4.5" stroke-miterlimit="10" pointer-events="all"/></g><g><path d="M 30 808.5 L 548.09 808.5" fill="none" stroke="#008080" stroke-width="4.5" stroke-miterlimit="10" pointer-events="stroke"/><path d="M 564.97 808.5 L 542.47 819.75 L 548.09 808.5 L 542.47 797.25 Z" fill="#008080" stroke="#008080" stroke-width="4.5" stroke-miterlimit="10" pointer-events="all"/></g><g><rect x="30" y="735" width="510" height="60" fill="none" stroke="none" pointer-events="all"/></g><g><g fill="#008080" font-family="Verdana" text-anchor="middle" font-size="48px"><text x="284.5" y="785.5">Pass 15 up one level.</text></g></g><g><rect x="30" y="810" width="510" height="60" fill="none" stroke="none" pointer-events="all"/></g><g><g fill="#008080" font-family="Verdana" text-anchor="middle" font-size="48px"><text x="284.5" y="860.5">Rearrange nodes.</text></g></g><g><rect x="600" y="480" width="1380" height="660" fill="none" stroke="#008080" stroke-width="3" pointer-events="all"/></g><g><rect x="630" y="1170" width="1335" height="90" fill="none" stroke="none" pointer-events="all"/></g><g><g fill="#008080" font-family="Verdana" text-anchor="middle" font-size="48px"><text x="1297" y="1235.5">Final 2-3 Tree</text></g></g></g></svg>