<?xml version="1.0" encoding="UTF-8"?>
<!DOCTYPE svg PUBLIC "-//W3C//DTD SVG 1.1//EN" "http://www.w3.org/Graphics/SVG/1.1/DTD/svg11.dtd">
<svg xmlns="http://www.w3.org/2000/svg" xmlns:xlink="http://www.w3.org/1999/xlink" version="1.1" width="2160px" height="420px" viewBox="-0.5 -0.5 2160 420"><defs/><g><g><rect x="0" y="0" width="2160" height="420" fill="none" stroke="none" pointer-events="all"/></g><g><path d="M 1890 150 L 1994.51 254.51" fill="none" stroke="#008080" stroke-width="4.5" stroke-miterlimit="10" pointer-events="stroke"/><path d="M 2006.44 266.44 L 1982.58 258.49 L 1994.51 254.51 L 1998.49 242.58 Z" fill="#008080" stroke="#008080" stroke-width="4.5" stroke-miterlimit="10" pointer-events="all"/></g><g><path d="M 1770 150 L 1770 248.09" fill="none" stroke="#008080" stroke-width="4.5" stroke-miterlimit="10" pointer-events="stroke"/><path d="M 1770 264.97 L 1758.75 242.47 L 1770 248.09 L 1781.25 242.47 Z" fill="#008080" stroke="#008080" stroke-width="4.5" stroke-miterlimit="10" pointer-events="all"/></g><g><path d="M 1650 150 L 1545.49 254.51" fill="none" stroke="#008080" stroke-width="4.5" stroke-miterlimit="10" pointer-events="stroke"/><path d="M 1533.56 266.44 L 1541.51 242.58 L 1545.49 254.51 L 1557.42 258.49 Z" fill="#008080" stroke="#008080" stroke-width="4.5" stroke-miterlimit="10" pointer-events="all"/></g><g><rect x="450" y="270" width="120" height="120" fill="rgb(255, 255, 255)" stroke="#008080" stroke-width="4.5" stroke-dasharray="13.5 13.5" pointer-events="all"/></g><g><g fill="#008080" font-family="Verdana" font-weight="bold" text-anchor="middle" font-size="48px"><text x="509.5" y="350.5">30</text></g></g><g><path d="M 450 150 L 611.77 257.85" fill="none" stroke="#008080" stroke-width="4.5" stroke-miterlimit="10" pointer-events="stroke"/><path d="M 625.81 267.21 L 600.85 264.09 L 611.77 257.85 L 613.33 245.37 Z" fill="#008080" stroke="#008080" stroke-width="4.5" stroke-miterlimit="10" pointer-events="all"/></g><g><path d="M 330 150 L 168.23 257.85" fill="none" stroke="#008080" stroke-width="4.5" stroke-miterlimit="10" pointer-events="stroke"/><path d="M 154.19 267.21 L 166.67 245.37 L 168.23 257.85 L 179.15 264.09 Z" fill="#008080" stroke="#008080" stroke-width="4.5" stroke-miterlimit="10" pointer-events="all"/></g><g><rect x="30" y="270" width="120" height="120" fill="rgb(255, 255, 255)" stroke="#008080" stroke-width="4.5" pointer-events="all"/></g><g><g fill="#008080" font-family="Verdana" font-weight="bold" text-anchor="middle" font-size="48px"><text x="89.5" y="350.5">2</text></g></g><g><rect x="330" y="30" width="120" height="120" fill="rgb(255, 255, 255)" stroke="#008080" stroke-width="4.5" pointer-events="all"/></g><g><g fill="#008080" font-family="Verdana" font-weight="bold" text-anchor="middle" font-size="48px"><text x="389.5" y="110.5">15</text></g></g><g><rect x="690" y="270" width="120" height="120" fill="rgb(255, 255, 255)" stroke="#008080" stroke-width="4.5" pointer-events="all"/></g><g><g fill="#008080" font-family="Verdana" font-weight="bold" text-anchor="middle" font-size="48px"><text x="749.5" y="350.5">80</text></g></g><g><rect x="150" y="270" width="120" height="120" fill="rgb(255, 255, 255)" stroke="#008080" stroke-width="4.5" pointer-events="all"/></g><g><g fill="#008080" font-family="Verdana" font-weight="bold" text-anchor="middle" font-size="48px"><text x="209.5" y="350.5">10</text></g></g><g><rect x="570" y="270" width="120" height="120" fill="rgb(255, 255, 255)" stroke="#008080" stroke-width="4.5" pointer-events="all"/></g><g><g fill="#008080" font-family="Verdana" font-weight="bold" text-anchor="middle" font-size="48px"><text x="629.5" y="350.5">40</text></g></g><g><rect x="1410" y="270" width="120" height="120" fill="rgb(255, 255, 255)" stroke="#008080" stroke-width="4.5" pointer-events="all"/></g><g><g fill="#008080" font-family="Verdana" font-weight="bold" text-anchor="middle" font-size="48px"><text x="1469.5" y="350.5">2</text></g></g><g><rect x="840" y="135" width="510" height="60" fill="none" stroke="none" pointer-events="all"/></g><g><g fill="#008080" font-family="Verdana" text-anchor="middle" font-size="48px"><text x="1094.5" y="185.5">Pass 40 up one level.</text></g></g><g><path d="M 840 210 L 1358.09 210" fill="none" stroke="#008080" stroke-width="4.5" stroke-miterlimit="10" pointer-events="stroke"/><path d="M 1374.97 210 L 1352.47 221.25 L 1358.09 210 L 1352.47 198.75 Z" fill="#008080" stroke="#008080" stroke-width="4.5" stroke-miterlimit="10" pointer-events="all"/></g><g><rect x="1530" y="270" width="120" height="120" fill="rgb(255, 255, 255)" stroke="#008080" stroke-width="4.5" pointer-events="all"/></g><g><g fill="#008080" font-family="Verdana" font-weight="bold" text-anchor="middle" font-size="48px"><text x="1589.5" y="350.5">10</text></g></g><g><rect x="1650" y="30" width="120" height="120" fill="rgb(255, 255, 255)" stroke="#008080" stroke-width="4.5" pointer-events="all"/></g><g><g fill="#008080" font-family="Verdana" font-weight="bold" text-anchor="middle" font-size="48px"><text x="1709.5" y="110.5">15</text></g></g><g><rect x="1770" y="30" width="120" height="120" fill="rgb(255, 255, 255)" stroke="#008080" stroke-width="4.5" pointer-events="all"/></g><g><g fill="#008080" font-family="Verdana" font-weight="bold" text-anchor="middle" font-size="48px"><text x="1829.5" y="110.5">40</text></g></g><g><rect x="1710" y="270" width="120" height="120" fill="rgb(255, 255, 255)" stroke="#008080" stroke-width="4.5" pointer-events="all"/></g><g><g fill="#008080" font-family="Verdana" font-weight="bold" text-anchor="middle" font-size="48px"><text x="1769.5" y="350.5">30</text></g></g><g><rect x="2010" y="270" width="120" height="120" fill="rgb(255, 255, 255)" stroke="#008080" stroke-width="4.5" pointer-events="all"/></g><g><g fill="#008080" font-family="Verdana" font-weight="bold" text-anchor="middle" font-size="48px"><text x="2069.5" y="350.5">80</text></g></g></g></svg>