<?xml version="1.0" encoding="UTF-8"?>
<!DOCTYPE svg PUBLIC "-//W3C//DTD SVG 1.1//EN" "http://www.w3.org/Graphics/SVG/1.1/DTD/svg11.dtd">
<svg xmlns="http://www.w3.org/2000/svg" xmlns:xlink="http://www.w3.org/1999/xlink" version="1.1" width="900px" height="420px" viewBox="-0.5 -0.5 900 420"><defs/><g><g><rect x="0" y="0" width="900" height="420" fill="none" stroke="none" pointer-events="all"/></g><g><path d="M 570 150 L 731.77 257.85" fill="none" stroke="#008080" stroke-width="4.5" stroke-miterlimit="10" pointer-events="stroke"/><path d="M 745.81 267.21 L 720.85 264.09 L 731.77 257.85 L 733.33 245.37 Z" fill="#008080" stroke="#008080" stroke-width="4.5" stroke-miterlimit="10" pointer-events="all"/></g><g><path d="M 450 150 L 450 248.09" fill="none" stroke="#008080" stroke-width="4.5" stroke-miterlimit="10" pointer-events="stroke"/><path d="M 450 264.97 L 438.75 242.47 L 450 248.09 L 461.25 242.47 Z" fill="#008080" stroke="#008080" stroke-width="4.5" stroke-miterlimit="10" pointer-events="all"/></g><g><path d="M 330 150 L 168.23 257.85" fill="none" stroke="#008080" stroke-width="4.5" stroke-miterlimit="10" pointer-events="stroke"/><path d="M 154.19 267.21 L 166.67 245.37 L 168.23 257.85 L 179.15 264.09 Z" fill="#008080" stroke="#008080" stroke-width="4.5" stroke-miterlimit="10" pointer-events="all"/></g><g><rect x="30" y="270" width="120" height="120" fill="rgb(255, 255, 255)" stroke="#008080" stroke-width="4.5" pointer-events="all"/></g><g><g fill="#008080" font-family="Verdana" font-weight="bold" text-anchor="middle" font-size="48px"><text x="89.5" y="350.5">2</text></g></g><g><rect x="150" y="270" width="120" height="120" fill="rgb(255, 255, 255)" stroke="#008080" stroke-width="4.5" pointer-events="all"/></g><g><g fill="#008080" font-family="Verdana" font-weight="bold" text-anchor="middle" font-size="48px"><text x="209.5" y="350.5">10</text></g></g><g><rect x="330" y="30" width="120" height="120" fill="rgb(255, 255, 255)" stroke="#008080" stroke-width="4.5" pointer-events="all"/></g><g><g fill="#008080" font-family="Verdana" font-weight="bold" text-anchor="middle" font-size="48px"><text x="389.5" y="110.5">15</text></g></g><g><rect x="450" y="30" width="120" height="120" fill="rgb(255, 255, 255)" stroke="#008080" stroke-width="4.5" pointer-events="all"/></g><g><g fill="#008080" font-family="Verdana" font-weight="bold" text-anchor="middle" font-size="48px"><text x="509.5" y="110.5">40</text></g></g><g><rect x="330" y="270" width="120" height="120" fill="rgb(255, 255, 255)" stroke="#008080" stroke-width="4.5" pointer-events="all"/></g><g><g fill="#008080" font-family="Verdana" font-weight="bold" text-anchor="middle" font-size="48px"><text x="389.5" y="350.5">30</text></g></g><g><rect x="750" y="270" width="120" height="120" fill="rgb(255, 255, 255)" stroke="#008080" stroke-width="4.5" pointer-events="all"/></g><g><g fill="#008080" font-family="Verdana" font-weight="bold" text-anchor="middle" font-size="48px"><text x="809.5" y="350.5">80</text></g></g><g><rect x="450" y="270" width="120" height="120" fill="rgb(255, 255, 255)" stroke="#008080" stroke-width="4.5" pointer-events="all"/></g><g><g fill="#008080" font-family="Verdana" font-weight="bold" text-anchor="middle" font-size="48px"><text x="509.5" y="350.5">36</text></g></g></g></svg>