<?xml version="1.0" encoding="UTF-8"?>
<!DOCTYPE svg PUBLIC "-//W3C//DTD SVG 1.1//EN" "http://www.w3.org/Graphics/SVG/1.1/DTD/svg11.dtd">
<svg xmlns="http://www.w3.org/2000/svg" xmlns:xlink="http://www.w3.org/1999/xlink" version="1.1" width="1680px" height="420px" viewBox="-0.5 -0.5 1680 420"><defs/><g><g><rect x="0" y="0" width="1680" height="420" fill="none" stroke="none" pointer-events="all"/></g><g><rect x="450" y="135" width="510" height="60" fill="none" stroke="none" pointer-events="all"/></g><g><g fill="#008080" font-family="Verdana" text-anchor="middle" font-size="48px"><text x="704.5" y="185.5">Pass 15 up one level.</text></g></g><g><path d="M 1410 150 L 1514.51 254.51" fill="none" stroke="#008080" stroke-width="4.5" stroke-miterlimit="10" pointer-events="stroke"/><path d="M 1526.44 266.44 L 1502.58 258.49 L 1514.51 254.51 L 1518.49 242.58 Z" fill="#008080" stroke="#008080" stroke-width="4.5" stroke-miterlimit="10" pointer-events="all"/></g><g><path d="M 1290 150 L 1185.49 254.51" fill="none" stroke="#008080" stroke-width="4.5" stroke-miterlimit="10" pointer-events="stroke"/><path d="M 1173.56 266.44 L 1181.51 242.58 L 1185.49 254.51 L 1197.42 258.49 Z" fill="#008080" stroke="#008080" stroke-width="4.5" stroke-miterlimit="10" pointer-events="all"/></g><g><rect x="30" y="150" width="120" height="120" fill="rgb(255, 255, 255)" stroke="#008080" stroke-width="4.5" pointer-events="all"/></g><g><g fill="#008080" font-family="Verdana" font-weight="bold" text-anchor="middle" font-size="48px"><text x="89.5" y="230.5">10</text></g></g><g><rect x="270" y="150" width="120" height="120" fill="rgb(255, 255, 255)" stroke="#008080" stroke-width="4.5" stroke-dasharray="13.5 13.5" pointer-events="all"/></g><g><g fill="#008080" font-family="Verdana" font-weight="bold" text-anchor="middle" font-size="48px"><text x="329.5" y="230.5">40</text></g></g><g><rect x="150" y="150" width="120" height="120" fill="rgb(255, 255, 255)" stroke="#008080" stroke-width="4.5" pointer-events="all"/></g><g><g fill="#008080" font-family="Verdana" font-weight="bold" text-anchor="middle" font-size="48px"><text x="209.5" y="230.5">15</text></g></g><g><rect x="1050" y="270" width="120" height="120" fill="rgb(255, 255, 255)" stroke="#008080" stroke-width="4.5" pointer-events="all"/></g><g><g fill="#008080" font-family="Verdana" font-weight="bold" text-anchor="middle" font-size="48px"><text x="1109.5" y="350.5">10</text></g></g><g><rect x="1290" y="30" width="120" height="120" fill="rgb(255, 255, 255)" stroke="#008080" stroke-width="4.5" pointer-events="all"/></g><g><g fill="#008080" font-family="Verdana" font-weight="bold" text-anchor="middle" font-size="48px"><text x="1349.5" y="110.5">15</text></g></g><g><rect x="1530" y="270" width="120" height="120" fill="rgb(255, 255, 255)" stroke="#008080" stroke-width="4.5" pointer-events="all"/></g><g><g fill="#008080" font-family="Verdana" font-weight="bold" text-anchor="middle" font-size="48px"><text x="1589.5" y="350.5">40</text></g></g><g><path d="M 450 210 L 968.09 210" fill="none" stroke="#008080" stroke-width="4.5" stroke-miterlimit="10" pointer-events="stroke"/><path d="M 984.97 210 L 962.47 221.25 L 968.09 210 L 962.47 198.75 Z" fill="#008080" stroke="#008080" stroke-width="4.5" stroke-miterlimit="10" pointer-events="all"/></g></g></svg>