<?xml version="1.0" encoding="UTF-8"?>
<!DOCTYPE svg PUBLIC "-//W3C//DTD SVG 1.1//EN" "http://www.w3.org/Graphics/SVG/1.1/DTD/svg11.dtd">
<svg xmlns="http://www.w3.org/2000/svg" xmlns:xlink="http://www.w3.org/1999/xlink" version="1.1" width="3330px" height="1050px" viewBox="-0.5 -0.5 3330 1050"><defs/><g><g><rect x="0" y="0" width="3330" height="1050" fill="none" stroke="none" pointer-events="all"/></g><g><rect x="60" y="780" width="1080" height="240" fill="rgb(255, 255, 255)" stroke="#008080" stroke-width="4.5" pointer-events="all"/></g><g><g fill="#008080" font-family="Courier New" font-weight="bold" font-size="54px"><text x="65.5" y="851.5">  parent =</text><text x="65.5" y="917.5"> current =</text><text x="65.5" y="983.5">  offset = 0</text></g></g><g><path d="M 543 834 L 1200 834 L 1200 600 L 810 600 L 810 330 L 741.91 330" fill="none" stroke="#008080" stroke-width="4.5" stroke-miterlimit="10" pointer-events="stroke"/><path d="M 725.03 330 L 747.53 318.75 L 741.91 330 L 747.53 341.25 Z" fill="#008080" stroke="#008080" stroke-width="4.5" stroke-miterlimit="10" pointer-events="all"/></g><g><rect x="2730" y="120" width="510" height="120" fill="#ffff99" stroke="rgb(0, 0, 0)" stroke-width="4.5" pointer-events="all"/></g><g><g fill="rgb(0, 0, 0)" font-family="Courier New" font-weight="bold" text-anchor="middle" font-size="54px"><text x="2984.5" y="191.5">D_Node</text></g></g><g><rect x="2100" y="120" width="510" height="120" fill="#ffff99" stroke="rgb(0, 0, 0)" stroke-width="4.5" pointer-events="all"/></g><g><g fill="rgb(0, 0, 0)" font-family="Courier New" font-weight="bold" text-anchor="middle" font-size="54px"><text x="2354.5" y="191.5">D_Node</text></g></g><g><rect x="1470" y="120" width="510" height="120" fill="#ffff99" stroke="rgb(0, 0, 0)" stroke-width="4.5" pointer-events="all"/></g><g><g fill="rgb(0, 0, 0)" font-family="Courier New" font-weight="bold" text-anchor="middle" font-size="54px"><text x="1724.5" y="191.5">D_Node</text></g></g><g><rect x="840" y="120" width="510" height="120" fill="#ffff99" stroke="rgb(0, 0, 0)" stroke-width="4.5" pointer-events="all"/></g><g><g fill="rgb(0, 0, 0)" font-family="Courier New" font-weight="bold" text-anchor="middle" font-size="54px"><text x="1094.5" y="191.5">D_Node</text></g></g><g><rect x="60" y="240" width="660" height="240" fill="rgb(255, 255, 255)" stroke="rgb(0, 0, 0)" stroke-width="4.5" pointer-events="all"/></g><g><g fill="rgb(0, 0, 0)" font-family="Courier New" font-weight="bold" font-size="54px"><text x="65.5" y="311.5">         head =</text><text x="65.5" y="377.5">         tail =</text><text x="65.5" y="443.5"> num_of_items = 4</text></g></g><g><path d="M 696 294 L 780 294 L 780 60 L 930 60 L 1095 60 L 1095 98.09" fill="none" stroke="rgb(0, 0, 0)" stroke-width="4.5" stroke-miterlimit="10" pointer-events="stroke"/><path d="M 1095 114.97 L 1083.75 92.47 L 1095 98.09 L 1106.25 92.47 Z" fill="rgb(0, 0, 0)" stroke="rgb(0, 0, 0)" stroke-width="4.5" stroke-miterlimit="10" pointer-events="all"/></g><g><rect x="2730" y="240" width="510" height="240" fill="rgb(255, 255, 255)" stroke="rgb(0, 0, 0)" stroke-width="4.5" pointer-events="all"/></g><g><g fill="rgb(0, 0, 0)" font-family="Courier New" font-weight="bold" font-size="54px"><text x="2735.5" y="311.5"> data = "Pete" </text><text x="2735.5" y="377.5"> next = NULL</text><text x="2735.5" y="443.5"> prev =</text></g></g><g><rect x="2100" y="240" width="510" height="240" fill="rgb(255, 255, 255)" stroke="rgb(0, 0, 0)" stroke-width="4.5" pointer-events="all"/></g><g><g fill="rgb(0, 0, 0)" font-family="Courier New" font-weight="bold" font-size="54px"><text x="2105.5" y="311.5"> data = "Sam" </text><text x="2105.5" y="377.5"> next =</text><text x="2105.5" y="443.5"> prev =</text></g></g><g><rect x="1470" y="240" width="510" height="240" fill="rgb(255, 255, 255)" stroke="rgb(0, 0, 0)" stroke-width="4.5" pointer-events="all"/></g><g><g fill="rgb(0, 0, 0)" font-family="Courier New" font-weight="bold" font-size="54px"><text x="1475.5" y="311.5"> data = "Dick" </text><text x="1475.5" y="377.5"> next =</text><text x="1475.5" y="443.5"> prev =</text></g></g><g><rect x="840" y="240" width="510" height="240" fill="rgb(255, 255, 255)" stroke="rgb(0, 0, 0)" stroke-width="4.5" pointer-events="all"/></g><g><g fill="rgb(0, 0, 0)" font-family="Courier New" font-weight="bold" font-size="54px"><text x="845.5" y="311.5"> data = "Tom" </text><text x="845.5" y="377.5"> next =</text><text x="845.5" y="443.5"> prev = NULL</text></g></g><g><path d="M 1860 426 L 2040 426 L 2040 540 L 1470 540 L 1440 540 L 1440 450 L 1440 390 L 1371.91 390" fill="none" stroke="rgb(0, 0, 0)" stroke-width="4.5" stroke-miterlimit="10" pointer-events="stroke"/><path d="M 1355.03 390 L 1377.53 378.75 L 1371.91 390 L 1377.53 401.25 Z" fill="rgb(0, 0, 0)" stroke="rgb(0, 0, 0)" stroke-width="4.5" stroke-miterlimit="10" pointer-events="all"/></g><g><path d="M 2490 426 L 2670 426 L 2670 540 L 2100 540 L 2070 540 L 2070 450 L 2070 390 L 2001.91 390" fill="none" stroke="rgb(0, 0, 0)" stroke-width="4.5" stroke-miterlimit="10" pointer-events="stroke"/><path d="M 1985.03 390 L 2007.53 378.75 L 2001.91 390 L 2007.53 401.25 Z" fill="rgb(0, 0, 0)" stroke="rgb(0, 0, 0)" stroke-width="4.5" stroke-miterlimit="10" pointer-events="all"/></g><g><path d="M 3120 426 L 3300 426 L 3300 540 L 2730 540 L 2700 540 L 2700 450 L 2700 390 L 2631.91 390" fill="none" stroke="rgb(0, 0, 0)" stroke-width="4.5" stroke-miterlimit="10" pointer-events="stroke"/><path d="M 2615.03 390 L 2637.53 378.75 L 2631.91 390 L 2637.53 401.25 Z" fill="rgb(0, 0, 0)" stroke="rgb(0, 0, 0)" stroke-width="4.5" stroke-miterlimit="10" pointer-events="all"/></g><g><path d="M 2490 360 L 2670 360 L 2670 180 L 2703.59 180" fill="none" stroke="rgb(0, 0, 0)" stroke-width="4.5" stroke-miterlimit="10" pointer-events="stroke"/><path d="M 2724.97 180 L 2696.47 194.25 L 2703.59 180 L 2696.47 165.75 Z" fill="rgb(0, 0, 0)" stroke="rgb(0, 0, 0)" stroke-width="4.5" stroke-miterlimit="10" pointer-events="all"/></g><g><path d="M 1860 360 L 2040 360 L 2040 180 L 2073.59 180" fill="none" stroke="rgb(0, 0, 0)" stroke-width="4.5" stroke-miterlimit="10" pointer-events="stroke"/><path d="M 2094.97 180 L 2066.47 194.25 L 2073.59 180 L 2066.47 165.75 Z" fill="rgb(0, 0, 0)" stroke="rgb(0, 0, 0)" stroke-width="4.5" stroke-miterlimit="10" pointer-events="all"/></g><g><path d="M 1230 360 L 1410 360 L 1410 180 L 1443.59 180" fill="none" stroke="rgb(0, 0, 0)" stroke-width="4.5" stroke-miterlimit="10" pointer-events="stroke"/><path d="M 1464.97 180 L 1436.47 194.25 L 1443.59 180 L 1436.47 165.75 Z" fill="rgb(0, 0, 0)" stroke="rgb(0, 0, 0)" stroke-width="4.5" stroke-miterlimit="10" pointer-events="all"/></g><g><rect x="60" y="120" width="660" height="120" fill="#ffff99" stroke="rgb(0, 0, 0)" stroke-width="4.5" pointer-events="all"/></g><g><g fill="rgb(0, 0, 0)" font-family="Courier New" font-weight="bold" text-anchor="middle" font-size="54px"><text x="389.5" y="191.5">Linked_List&lt;string&gt;</text></g></g><g><rect x="576" y="279" width="120" height="30" fill="rgb(255, 255, 255)" stroke="rgb(0, 0, 0)" stroke-width="2.25" pointer-events="all"/></g><g><path d="M 696 360 L 780 360 L 780 540 L 420 540 L 30 540 L 30 210 L 30 30 L 690 30 L 1740 30 L 2985 30 L 2985 98.09" fill="none" stroke="rgb(0, 0, 0)" stroke-width="4.5" stroke-miterlimit="10" pointer-events="stroke"/><path d="M 2985 114.97 L 2973.75 92.47 L 2985 98.09 L 2996.25 92.47 Z" fill="rgb(0, 0, 0)" stroke="rgb(0, 0, 0)" stroke-width="4.5" stroke-miterlimit="10" pointer-events="all"/></g><g><rect x="576" y="345" width="120" height="30" fill="rgb(255, 255, 255)" stroke="rgb(0, 0, 0)" stroke-width="2.25" pointer-events="all"/></g><g><rect x="2370" y="345" width="120" height="30" fill="rgb(255, 255, 255)" stroke="rgb(0, 0, 0)" stroke-width="2.25" pointer-events="all"/></g><g><rect x="2370" y="411" width="120" height="30" fill="rgb(255, 255, 255)" stroke="rgb(0, 0, 0)" stroke-width="2.25" pointer-events="all"/></g><g><rect x="3000" y="411" width="120" height="30" fill="rgb(255, 255, 255)" stroke="rgb(0, 0, 0)" stroke-width="2.25" pointer-events="all"/></g><g><rect x="1740" y="345" width="120" height="30" fill="rgb(255, 255, 255)" stroke="rgb(0, 0, 0)" stroke-width="2.25" pointer-events="all"/></g><g><rect x="1740" y="411" width="120" height="30" fill="rgb(255, 255, 255)" stroke="rgb(0, 0, 0)" stroke-width="2.25" pointer-events="all"/></g><g><rect x="1110" y="345" width="120" height="30" fill="rgb(255, 255, 255)" stroke="rgb(0, 0, 0)" stroke-width="2.25" pointer-events="all"/></g><g><rect x="60" y="660" width="1080" height="120" fill="#e0ffff" stroke="#008080" stroke-width="4.5" pointer-events="all"/></g><g><g fill="#008080" font-family="Courier New" font-weight="bold" text-anchor="middle" font-size="54px"><text x="599.5" y="731.5">Linked_List&lt;string&gt;::iterator it</text></g></g><g><rect x="423" y="819" width="120" height="30" fill="rgb(255, 255, 255)" stroke="#008080" stroke-width="2.25" pointer-events="all"/></g><g><rect x="423" y="885" width="120" height="30" fill="rgb(255, 255, 255)" stroke="#008080" stroke-width="2.25" pointer-events="all"/></g><g><path d="M 543 900 L 1230 900 L 1230 540 L 1095 540 L 1095 501.91" fill="none" stroke="#008080" stroke-width="4.5" stroke-miterlimit="10" pointer-events="stroke"/><path d="M 1095 485.03 L 1106.25 507.53 L 1095 501.91 L 1083.75 507.53 Z" fill="#008080" stroke="#008080" stroke-width="4.5" stroke-miterlimit="10" pointer-events="all"/></g></g></svg>