<?xml version="1.0" encoding="UTF-8"?>
<!DOCTYPE svg PUBLIC "-//W3C//DTD SVG 1.1//EN" "http://www.w3.org/Graphics/SVG/1.1/DTD/svg11.dtd">
<svg xmlns="http://www.w3.org/2000/svg" xmlns:xlink="http://www.w3.org/1999/xlink" version="1.1" width="905px" height="1145px" viewBox="-0.5 -0.5 905 1145"><defs/><g><rect x="0" y="0" width="900" height="1140" fill="none" stroke="none" pointer-events="all"/><path d="M 527.57 132.43 L 460.76 250.92" fill="none" stroke="#000000" stroke-width="4.5" stroke-miterlimit="10" pointer-events="stroke"/><path d="M 452.47 265.62 L 453.72 240.49 L 460.76 250.92 L 473.32 251.54 Z" fill="#000000" stroke="#000000" stroke-width="4.5" stroke-miterlimit="10" pointer-events="all"/><path d="M 612.43 132.43 L 679.24 250.92" fill="none" stroke="#000000" stroke-width="4.5" stroke-miterlimit="10" pointer-events="stroke"/><path d="M 687.53 265.62 L 666.68 251.54 L 679.24 250.92 L 686.28 240.49 Z" fill="#000000" stroke="#000000" stroke-width="4.5" stroke-miterlimit="10" pointer-events="all"/><path d="M 407.57 372.43 L 340.76 490.92" fill="none" stroke="#000000" stroke-width="4.5" stroke-miterlimit="10" pointer-events="stroke"/><path d="M 332.47 505.62 L 333.72 480.49 L 340.76 490.92 L 353.32 491.54 Z" fill="#000000" stroke="#000000" stroke-width="4.5" stroke-miterlimit="10" pointer-events="all"/><path d="M 492.43 372.43 L 559.24 490.92" fill="none" stroke="#000000" stroke-width="4.5" stroke-miterlimit="10" pointer-events="stroke"/><path d="M 567.53 505.62 L 546.68 491.54 L 559.24 490.92 L 566.28 480.49 Z" fill="#000000" stroke="#000000" stroke-width="4.5" stroke-miterlimit="10" pointer-events="all"/><path d="M 287.57 612.43 L 220.76 730.92" fill="none" stroke="#000000" stroke-width="4.5" stroke-miterlimit="10" pointer-events="stroke"/><path d="M 212.47 745.62 L 213.72 720.49 L 220.76 730.92 L 233.32 731.54 Z" fill="#000000" stroke="#000000" stroke-width="4.5" stroke-miterlimit="10" pointer-events="all"/><path d="M 612.43 612.43 L 679.24 730.92" fill="none" stroke="#000000" stroke-width="4.5" stroke-miterlimit="10" pointer-events="stroke"/><path d="M 687.53 745.62 L 666.68 731.54 L 679.24 730.92 L 686.28 720.49 Z" fill="#000000" stroke="#000000" stroke-width="4.5" stroke-miterlimit="10" pointer-events="all"/><path d="M 167.57 852.43 L 100.76 970.92" fill="none" stroke="#000000" stroke-width="4.5" stroke-miterlimit="10" pointer-events="stroke"/><path d="M 92.47 985.62 L 93.72 960.49 L 100.76 970.92 L 113.32 971.54 Z" fill="#000000" stroke="#000000" stroke-width="4.5" stroke-miterlimit="10" pointer-events="all"/><path d="M 732.43 852.43 L 799.24 970.92" fill="none" stroke="#000000" stroke-width="4.5" stroke-miterlimit="10" pointer-events="stroke"/><path d="M 807.53 985.62 L 786.68 971.54 L 799.24 970.92 L 806.28 960.49 Z" fill="#000000" stroke="#000000" stroke-width="4.5" stroke-miterlimit="10" pointer-events="all"/><ellipse cx="570" cy="90" rx="60" ry="60" fill="#ffffff" stroke="#000000" stroke-width="4.5" pointer-events="all"/><g fill="#000000" font-family="Verdana" font-weight="bold" text-anchor="middle" font-size="51px"><text x="569.5" y="112">0</text></g><ellipse cx="450" cy="330" rx="60" ry="60" fill="#ffffff" stroke="#000000" stroke-width="4.5" pointer-events="all"/><g fill="#000000" font-family="Verdana" font-weight="bold" text-anchor="middle" font-size="51px"><text x="449.5" y="352">1</text></g><ellipse cx="690" cy="330" rx="60" ry="60" fill="#ffffff" stroke="#000000" stroke-width="4.5" pointer-events="all"/><g fill="#000000" font-family="Verdana" font-weight="bold" text-anchor="middle" font-size="51px"><text x="689.5" y="352">2</text></g><ellipse cx="330" cy="570" rx="60" ry="60" fill="#ffffff" stroke="#000000" stroke-width="4.5" pointer-events="all"/><g fill="#000000" font-family="Verdana" font-weight="bold" text-anchor="middle" font-size="51px"><text x="329.5" y="592">3</text></g><ellipse cx="570" cy="570" rx="60" ry="60" fill="#ffffff" stroke="#000000" stroke-width="4.5" pointer-events="all"/><g fill="#000000" font-family="Verdana" font-weight="bold" text-anchor="middle" font-size="51px"><text x="569.5" y="592">4</text></g><ellipse cx="210" cy="810" rx="60" ry="60" fill="#ffffff" stroke="#000000" stroke-width="4.5" pointer-events="all"/><g fill="#000000" font-family="Verdana" font-weight="bold" text-anchor="middle" font-size="51px"><text x="209.5" y="832">5</text></g><ellipse cx="690" cy="810" rx="60" ry="60" fill="#ffffff" stroke="#000000" stroke-width="4.5" pointer-events="all"/><g fill="#000000" font-family="Verdana" font-weight="bold" text-anchor="middle" font-size="51px"><text x="689.5" y="832">6</text></g><ellipse cx="90" cy="1050" rx="60" ry="60" fill="#ffffff" stroke="#000000" stroke-width="4.5" pointer-events="all"/><g fill="#000000" font-family="Verdana" font-weight="bold" text-anchor="middle" font-size="51px"><text x="89.5" y="1072">7</text></g><ellipse cx="810" cy="1050" rx="60" ry="60" fill="#ffffff" stroke="#000000" stroke-width="4.5" pointer-events="all"/><g fill="#000000" font-family="Verdana" font-weight="bold" text-anchor="middle" font-size="51px"><text x="809.5" y="1072">8</text></g></g></svg>