<?xml version="1.0" encoding="UTF-8"?>
<!DOCTYPE svg PUBLIC "-//W3C//DTD SVG 1.1//EN" "http://www.w3.org/Graphics/SVG/1.1/DTD/svg11.dtd">
<svg xmlns="http://www.w3.org/2000/svg" xmlns:xlink="http://www.w3.org/1999/xlink" version="1.1" width="2135px" height="1025px" viewBox="-0.5 -0.5 2135 1025"><defs/><g><rect x="0" y="0" width="2130" height="1020" fill="none" stroke="none" pointer-events="all"/><path d="M 1877.57 612.43 L 1810.76 730.92" fill="none" stroke="rgb(0, 0, 0)" stroke-width="4.5" stroke-miterlimit="10" pointer-events="stroke"/><path d="M 1802.47 745.62 L 1803.72 720.49 L 1810.76 730.92 L 1823.32 731.54 Z" fill="rgb(0, 0, 0)" stroke="rgb(0, 0, 0)" stroke-width="4.5" stroke-miterlimit="10" pointer-events="all"/><path d="M 1482.43 612.43 L 1549.24 730.92" fill="none" stroke="rgb(0, 0, 0)" stroke-width="4.5" stroke-miterlimit="10" pointer-events="stroke"/><path d="M 1557.53 745.62 L 1536.68 731.54 L 1549.24 730.92 L 1556.28 720.49 Z" fill="rgb(0, 0, 0)" stroke="rgb(0, 0, 0)" stroke-width="4.5" stroke-miterlimit="10" pointer-events="all"/><path d="M 1397.57 612.43 L 1330.76 730.92" fill="none" stroke="rgb(0, 0, 0)" stroke-width="4.5" stroke-miterlimit="10" pointer-events="stroke"/><path d="M 1322.47 745.62 L 1323.72 720.49 L 1330.76 730.92 L 1343.32 731.54 Z" fill="rgb(0, 0, 0)" stroke="rgb(0, 0, 0)" stroke-width="4.5" stroke-miterlimit="10" pointer-events="all"/><path d="M 1002.43 612.43 L 1069.24 730.92" fill="none" stroke="rgb(0, 0, 0)" stroke-width="4.5" stroke-miterlimit="10" pointer-events="stroke"/><path d="M 1077.53 745.62 L 1056.68 731.54 L 1069.24 730.92 L 1076.28 720.49 Z" fill="rgb(0, 0, 0)" stroke="rgb(0, 0, 0)" stroke-width="4.5" stroke-miterlimit="10" pointer-events="all"/><path d="M 917.57 612.43 L 850.76 730.92" fill="none" stroke="rgb(0, 0, 0)" stroke-width="4.5" stroke-miterlimit="10" pointer-events="stroke"/><path d="M 842.47 745.62 L 843.72 720.49 L 850.76 730.92 L 863.32 731.54 Z" fill="rgb(0, 0, 0)" stroke="rgb(0, 0, 0)" stroke-width="4.5" stroke-miterlimit="10" pointer-events="all"/><path d="M 522.43 612.43 L 589.24 730.92" fill="none" stroke="rgb(0, 0, 0)" stroke-width="4.5" stroke-miterlimit="10" pointer-events="stroke"/><path d="M 597.53 745.62 L 576.68 731.54 L 589.24 730.92 L 596.28 720.49 Z" fill="rgb(0, 0, 0)" stroke="rgb(0, 0, 0)" stroke-width="4.5" stroke-miterlimit="10" pointer-events="all"/><path d="M 437.57 612.43 L 370.76 730.92" fill="none" stroke="rgb(0, 0, 0)" stroke-width="4.5" stroke-miterlimit="10" pointer-events="stroke"/><path d="M 362.47 745.62 L 363.72 720.49 L 370.76 730.92 L 383.32 731.54 Z" fill="rgb(0, 0, 0)" stroke="rgb(0, 0, 0)" stroke-width="4.5" stroke-miterlimit="10" pointer-events="all"/><path d="M 1722.43 372.43 L 1862.08 512.08" fill="none" stroke="rgb(0, 0, 0)" stroke-width="4.5" stroke-miterlimit="10" pointer-events="stroke"/><path d="M 1874.02 524.02 L 1850.15 516.06 L 1862.08 512.08 L 1866.06 500.15 Z" fill="rgb(0, 0, 0)" stroke="rgb(0, 0, 0)" stroke-width="4.5" stroke-miterlimit="10" pointer-events="all"/><path d="M 1637.57 372.43 L 1497.92 512.08" fill="none" stroke="rgb(0, 0, 0)" stroke-width="4.5" stroke-miterlimit="10" pointer-events="stroke"/><path d="M 1485.98 524.02 L 1493.94 500.15 L 1497.92 512.08 L 1509.85 516.06 Z" fill="rgb(0, 0, 0)" stroke="rgb(0, 0, 0)" stroke-width="4.5" stroke-miterlimit="10" pointer-events="all"/><path d="M 762.43 372.43 L 902.08 512.08" fill="none" stroke="rgb(0, 0, 0)" stroke-width="4.5" stroke-miterlimit="10" pointer-events="stroke"/><path d="M 914.02 524.02 L 890.15 516.06 L 902.08 512.08 L 906.06 500.15 Z" fill="rgb(0, 0, 0)" stroke="rgb(0, 0, 0)" stroke-width="4.5" stroke-miterlimit="10" pointer-events="all"/><path d="M 677.57 372.43 L 537.92 512.08" fill="none" stroke="rgb(0, 0, 0)" stroke-width="4.5" stroke-miterlimit="10" pointer-events="stroke"/><path d="M 525.98 524.02 L 533.94 500.15 L 537.92 512.08 L 549.85 516.06 Z" fill="rgb(0, 0, 0)" stroke="rgb(0, 0, 0)" stroke-width="4.5" stroke-miterlimit="10" pointer-events="all"/><path d="M 1157.57 132.43 L 782.82 279.57" fill="none" stroke="rgb(0, 0, 0)" stroke-width="4.5" stroke-miterlimit="10" pointer-events="stroke"/><path d="M 767.11 285.73 L 783.94 267.04 L 782.82 279.57 L 792.16 287.98 Z" fill="rgb(0, 0, 0)" stroke="rgb(0, 0, 0)" stroke-width="4.5" stroke-miterlimit="10" pointer-events="all"/><path d="M 1242.43 132.43 L 1617.18 279.57" fill="none" stroke="rgb(0, 0, 0)" stroke-width="4.5" stroke-miterlimit="10" pointer-events="stroke"/><path d="M 1632.89 285.73 L 1607.84 287.98 L 1617.18 279.57 L 1616.06 267.04 Z" fill="rgb(0, 0, 0)" stroke="rgb(0, 0, 0)" stroke-width="4.5" stroke-miterlimit="10" pointer-events="all"/><ellipse cx="360" cy="810" rx="60" ry="60" fill="rgb(255, 255, 255)" stroke="rgb(0, 0, 0)" stroke-width="4.5" pointer-events="all"/><g fill="rgb(0, 0, 0)" font-family="Verdana" font-weight="bold" text-anchor="middle" font-size="48px"><text x="359.5" y="830.5">7</text></g><ellipse cx="600" cy="810" rx="60" ry="60" fill="rgb(255, 255, 255)" stroke="rgb(0, 0, 0)" stroke-width="4.5" pointer-events="all"/><g fill="rgb(0, 0, 0)" font-family="Verdana" font-weight="bold" text-anchor="middle" font-size="48px"><text x="599.5" y="830.5">8</text></g><ellipse cx="840" cy="810" rx="60" ry="60" fill="rgb(255, 255, 255)" stroke="rgb(0, 0, 0)" stroke-width="4.5" pointer-events="all"/><g fill="rgb(0, 0, 0)" font-family="Verdana" font-weight="bold" text-anchor="middle" font-size="48px"><text x="839.5" y="830.5">9</text></g><ellipse cx="1080" cy="810" rx="60" ry="60" fill="rgb(255, 255, 255)" stroke="rgb(0, 0, 0)" stroke-width="4.5" pointer-events="all"/><g fill="rgb(0, 0, 0)" font-family="Verdana" font-weight="bold" text-anchor="middle" font-size="48px"><text x="1079.5" y="830.5">10</text></g><ellipse cx="1320" cy="810" rx="60" ry="60" fill="rgb(255, 255, 255)" stroke="rgb(0, 0, 0)" stroke-width="4.5" pointer-events="all"/><g fill="rgb(0, 0, 0)" font-family="Verdana" font-weight="bold" text-anchor="middle" font-size="48px"><text x="1319.5" y="830.5">11</text></g><ellipse cx="1560" cy="810" rx="60" ry="60" fill="rgb(255, 255, 255)" stroke="rgb(0, 0, 0)" stroke-width="4.5" pointer-events="all"/><g fill="rgb(0, 0, 0)" font-family="Verdana" font-weight="bold" text-anchor="middle" font-size="48px"><text x="1559.5" y="830.5">12</text></g><ellipse cx="1800" cy="810" rx="60" ry="60" fill="rgb(255, 255, 255)" stroke="rgb(0, 0, 0)" stroke-width="4.5" pointer-events="all"/><g fill="rgb(0, 0, 0)" font-family="Verdana" font-weight="bold" text-anchor="middle" font-size="48px"><text x="1799.5" y="830.5">13</text></g><ellipse cx="2040" cy="810" rx="60" ry="60" fill="rgb(255, 255, 255)" stroke="rgb(0, 0, 0)" stroke-width="4.5" pointer-events="all"/><g fill="rgb(0, 0, 0)" font-family="Verdana" font-weight="bold" text-anchor="middle" font-size="48px"><text x="2039.5" y="830.5">14</text></g><ellipse cx="480" cy="570" rx="60" ry="60" fill="rgb(255, 255, 255)" stroke="rgb(0, 0, 0)" stroke-width="4.5" pointer-events="all"/><g fill="rgb(0, 0, 0)" font-family="Verdana" font-weight="bold" text-anchor="middle" font-size="48px"><text x="479.5" y="590.5">3</text></g><ellipse cx="960" cy="570" rx="60" ry="60" fill="rgb(255, 255, 255)" stroke="rgb(0, 0, 0)" stroke-width="4.5" pointer-events="all"/><g fill="rgb(0, 0, 0)" font-family="Verdana" font-weight="bold" text-anchor="middle" font-size="48px"><text x="959.5" y="590.5">4</text></g><ellipse cx="1440" cy="570" rx="60" ry="60" fill="rgb(255, 255, 255)" stroke="rgb(0, 0, 0)" stroke-width="4.5" pointer-events="all"/><g fill="rgb(0, 0, 0)" font-family="Verdana" font-weight="bold" text-anchor="middle" font-size="48px"><text x="1439.5" y="590.5">5</text></g><ellipse cx="1920" cy="570" rx="60" ry="60" fill="rgb(255, 255, 255)" stroke="rgb(0, 0, 0)" stroke-width="4.5" pointer-events="all"/><g fill="rgb(0, 0, 0)" font-family="Verdana" font-weight="bold" text-anchor="middle" font-size="48px"><text x="1919.5" y="590.5">6</text></g><ellipse cx="720" cy="330" rx="60" ry="60" fill="rgb(255, 255, 255)" stroke="rgb(0, 0, 0)" stroke-width="4.5" pointer-events="all"/><g fill="rgb(0, 0, 0)" font-family="Verdana" font-weight="bold" text-anchor="middle" font-size="48px"><text x="719.5" y="350.5">1</text></g><ellipse cx="1680" cy="330" rx="60" ry="60" fill="rgb(255, 255, 255)" stroke="rgb(0, 0, 0)" stroke-width="4.5" pointer-events="all"/><g fill="rgb(0, 0, 0)" font-family="Verdana" font-weight="bold" text-anchor="middle" font-size="48px"><text x="1679.5" y="350.5">2</text></g><ellipse cx="1200" cy="90" rx="60" ry="60" fill="rgb(255, 255, 255)" stroke="rgb(0, 0, 0)" stroke-width="4.5" pointer-events="all"/><g fill="rgb(0, 0, 0)" font-family="Verdana" font-weight="bold" text-anchor="middle" font-size="48px"><text x="1199.5" y="110.5">0</text></g><path d="M 1962.43 612.43 L 2029.24 730.92" fill="none" stroke="rgb(0, 0, 0)" stroke-width="4.5" stroke-miterlimit="10" pointer-events="stroke"/><path d="M 2037.53 745.62 L 2016.68 731.54 L 2029.24 730.92 L 2036.28 720.49 Z" fill="rgb(0, 0, 0)" stroke="rgb(0, 0, 0)" stroke-width="4.5" stroke-miterlimit="10" pointer-events="all"/><rect x="300" y="840" width="120" height="120" fill="none" stroke="none" pointer-events="all"/><g fill="#ff4500" font-family="Verdana" text-anchor="middle" font-size="48px"><text x="359.5" y="920.5">···</text></g><rect x="540" y="840" width="120" height="120" fill="none" stroke="none" pointer-events="all"/><g fill="#ff4500" font-family="Verdana" text-anchor="middle" font-size="48px"><text x="599.5" y="920.5">···</text></g><rect x="780" y="840" width="120" height="120" fill="none" stroke="none" pointer-events="all"/><g fill="#ff4500" font-family="Verdana" text-anchor="middle" font-size="48px"><text x="839.5" y="920.5">···</text></g><rect x="1020" y="840" width="120" height="120" fill="none" stroke="none" pointer-events="all"/><g fill="#ff4500" font-family="Verdana" text-anchor="middle" font-size="48px"><text x="1079.5" y="920.5">···</text></g><rect x="1260" y="840" width="120" height="120" fill="none" stroke="none" pointer-events="all"/><g fill="#ff4500" font-family="Verdana" text-anchor="middle" font-size="48px"><text x="1319.5" y="920.5">···</text></g><rect x="1500" y="840" width="120" height="120" fill="none" stroke="none" pointer-events="all"/><g fill="#ff4500" font-family="Verdana" text-anchor="middle" font-size="48px"><text x="1559.5" y="920.5">···</text></g><rect x="1740" y="840" width="120" height="120" fill="none" stroke="none" pointer-events="all"/><g fill="#ff4500" font-family="Verdana" text-anchor="middle" font-size="48px"><text x="1799.5" y="920.5">···</text></g><rect x="1980" y="840" width="120" height="120" fill="none" stroke="none" pointer-events="all"/><g fill="#ff4500" font-family="Verdana" text-anchor="middle" font-size="48px"><text x="2039.5" y="920.5">···</text></g><rect x="1020" y="900" width="360" height="120" fill="none" stroke="none" pointer-events="all"/><g fill="#ff4500" font-family="Verdana" text-anchor="middle" font-size="48px"><text x="1199.5" y="980.5">(Infinite)</text></g><rect x="0" y="30" width="180" height="120" fill="none" stroke="none" pointer-events="all"/><g fill="#ff4500" font-family="Verdana" text-anchor="middle" font-size="48px"><text x="89.5" y="110.5">Row 1</text></g><rect x="0" y="270" width="180" height="120" fill="none" stroke="none" pointer-events="all"/><g fill="#ff4500" font-family="Verdana" text-anchor="middle" font-size="48px"><text x="89.5" y="350.5">Row 2</text></g><rect x="0" y="510" width="180" height="120" fill="none" stroke="none" pointer-events="all"/><g fill="#ff4500" font-family="Verdana" text-anchor="middle" font-size="48px"><text x="89.5" y="590.5">Row 3</text></g><rect x="0" y="750" width="180" height="120" fill="none" stroke="none" pointer-events="all"/><g fill="#ff4500" font-family="Verdana" text-anchor="middle" font-size="48px"><text x="89.5" y="830.5">Row 4</text></g><rect x="30" y="840" width="120" height="120" fill="none" stroke="none" pointer-events="all"/><g fill="#ff4500" font-family="Verdana" text-anchor="middle" font-size="48px"><text x="89.5" y="920.5">···</text></g></g></svg>