<?xml version="1.0" encoding="UTF-8"?>
<!DOCTYPE svg PUBLIC "-//W3C//DTD SVG 1.1//EN" "http://www.w3.org/Graphics/SVG/1.1/DTD/svg11.dtd">
<svg xmlns="http://www.w3.org/2000/svg" xmlns:xlink="http://www.w3.org/1999/xlink" version="1.1" width="933px" height="573px" viewBox="-0.5 -0.5 933 573"><defs/><g><rect x="300" y="60" width="120" height="120" fill="none" stroke="rgb(0, 0, 0)" stroke-width="3" pointer-events="all"/><g fill="#000000" font-family="Verdana" font-weight="bold" text-anchor="middle" font-size="48px"><text x="359.5" y="140.5">1</text></g><rect x="420" y="60" width="120" height="120" fill="none" stroke="rgb(0, 0, 0)" stroke-width="3" pointer-events="all"/><g fill="#000000" font-family="Verdana" font-weight="bold" text-anchor="middle" font-size="48px"><text x="479.5" y="140.5">2</text></g><rect x="540" y="60" width="120" height="120" fill="none" stroke="rgb(0, 0, 0)" stroke-width="3" pointer-events="all"/><g fill="#000000" font-family="Verdana" font-weight="bold" text-anchor="middle" font-size="48px"><text x="599.5" y="140.5">3</text></g><rect x="300" y="180" width="120" height="120" fill="none" stroke="rgb(0, 0, 0)" stroke-width="3" pointer-events="all"/><g fill="#000000" font-family="Verdana" font-weight="bold" text-anchor="middle" font-size="48px"><text x="359.5" y="260.5">4</text></g><rect x="420" y="180" width="120" height="120" fill="none" stroke="rgb(0, 0, 0)" stroke-width="3" pointer-events="all"/><g fill="#000000" font-family="Verdana" font-weight="bold" text-anchor="middle" font-size="48px"><text x="479.5" y="260.5">5</text></g><rect x="540" y="180" width="120" height="120" fill="none" stroke="rgb(0, 0, 0)" stroke-width="3" pointer-events="all"/><g fill="#000000" font-family="Verdana" font-weight="bold" text-anchor="middle" font-size="48px"><text x="599.5" y="260.5">6</text></g><rect x="300" y="300" width="120" height="120" fill="none" stroke="rgb(0, 0, 0)" stroke-width="3" pointer-events="all"/><g fill="#000000" font-family="Verdana" font-weight="bold" text-anchor="middle" font-size="48px"><text x="359.5" y="380.5">7</text></g><rect x="420" y="300" width="120" height="120" fill="none" stroke="rgb(0, 0, 0)" stroke-width="3" pointer-events="all"/><g fill="#000000" font-family="Verdana" font-weight="bold" text-anchor="middle" font-size="48px"><text x="479.5" y="380.5">8</text></g><rect x="540" y="300" width="120" height="120" fill="none" stroke="rgb(0, 0, 0)" stroke-width="3" pointer-events="all"/><g fill="#000000" font-family="Verdana" font-weight="bold" text-anchor="middle" font-size="48px"><text x="599.5" y="380.5">9</text></g><path d="M 270 30 L 702.53 462.53" fill="none" stroke="#008b8b" stroke-width="6" stroke-miterlimit="10" pointer-events="stroke"/><path d="M 715.26 475.26 L 689.8 466.77 L 702.53 462.53 L 706.77 449.8 Z" fill="#008b8b" stroke="#008b8b" stroke-width="6" stroke-miterlimit="10" pointer-events="all"/><path d="M 690 30 L 257.47 462.53" fill="none" stroke="#ff4500" stroke-width="6" stroke-miterlimit="10" pointer-events="stroke"/><path d="M 244.74 475.26 L 253.23 449.8 L 257.47 462.53 L 270.2 466.77 Z" fill="#ff4500" stroke="#ff4500" stroke-width="6" stroke-miterlimit="10" pointer-events="all"/><rect x="510" y="480" width="420" height="60" fill="none" stroke="none" pointer-events="all"/><g fill="#008B8B" font-family="Verdana" font-size="48px"><text x="515.5" y="530.5">Primary diagonal</text></g><rect x="0" y="480" width="510" height="60" fill="none" stroke="none" pointer-events="all"/><g fill="#FF4500" font-family="Verdana" text-anchor="middle" font-size="48px"><text x="254.5" y="530.5">Secondary diagonal</text></g><rect x="0" y="0" width="930" height="570" fill="none" stroke="none" pointer-events="all"/></g></svg>