<?xml version="1.0" encoding="UTF-8"?>
<!DOCTYPE svg PUBLIC "-//W3C//DTD SVG 1.1//EN" "http://www.w3.org/Graphics/SVG/1.1/DTD/svg11.dtd">
<svg xmlns="http://www.w3.org/2000/svg" xmlns:xlink="http://www.w3.org/1999/xlink" version="1.1" width="2340px" height="900px" viewBox="-0.5 -0.5 2340 900"><defs/><g><g><rect x="0" y="0" width="2340" height="900" fill="none" stroke="none" pointer-events="all"/></g><g><path d="M 1727.57 612.43 L 1587.92 752.08" fill="none" stroke="rgb(0, 0, 0)" stroke-width="4.5" stroke-miterlimit="10" pointer-events="stroke"/><path d="M 1575.98 764.02 L 1583.94 740.15 L 1587.92 752.08 L 1599.85 756.06 Z" fill="rgb(0, 0, 0)" stroke="rgb(0, 0, 0)" stroke-width="4.5" stroke-miterlimit="10" pointer-events="all"/></g><g><path d="M 852.43 612.43 L 992.08 752.08" fill="none" stroke="rgb(0, 0, 0)" stroke-width="4.5" stroke-miterlimit="10" pointer-events="stroke"/><path d="M 1004.02 764.02 L 980.15 756.06 L 992.08 752.08 L 996.06 740.15 Z" fill="rgb(0, 0, 0)" stroke="rgb(0, 0, 0)" stroke-width="4.5" stroke-miterlimit="10" pointer-events="all"/></g><g><path d="M 372.43 612.43 L 512.08 752.08" fill="none" stroke="rgb(0, 0, 0)" stroke-width="4.5" stroke-miterlimit="10" pointer-events="stroke"/><path d="M 524.02 764.02 L 500.15 756.06 L 512.08 752.08 L 516.06 740.15 Z" fill="rgb(0, 0, 0)" stroke="rgb(0, 0, 0)" stroke-width="4.5" stroke-miterlimit="10" pointer-events="all"/></g><g><path d="M 287.57 612.43 L 147.92 752.08" fill="none" stroke="rgb(0, 0, 0)" stroke-width="4.5" stroke-miterlimit="10" pointer-events="stroke"/><path d="M 135.98 764.02 L 143.94 740.15 L 147.92 752.08 L 159.85 756.06 Z" fill="rgb(0, 0, 0)" stroke="rgb(0, 0, 0)" stroke-width="4.5" stroke-miterlimit="10" pointer-events="all"/></g><g><path d="M 2052.43 372.43 L 2192.08 512.08" fill="none" stroke="rgb(0, 0, 0)" stroke-width="4.5" stroke-miterlimit="10" pointer-events="stroke"/><path d="M 2204.02 524.02 L 2180.15 516.06 L 2192.08 512.08 L 2196.06 500.15 Z" fill="rgb(0, 0, 0)" stroke="rgb(0, 0, 0)" stroke-width="4.5" stroke-miterlimit="10" pointer-events="all"/></g><g><path d="M 1967.57 372.43 L 1827.92 512.08" fill="none" stroke="rgb(0, 0, 0)" stroke-width="4.5" stroke-miterlimit="10" pointer-events="stroke"/><path d="M 1815.98 524.02 L 1823.94 500.15 L 1827.92 512.08 L 1839.85 516.06 Z" fill="rgb(0, 0, 0)" stroke="rgb(0, 0, 0)" stroke-width="4.5" stroke-miterlimit="10" pointer-events="all"/></g><g><path d="M 612.43 372.43 L 752.08 512.08" fill="none" stroke="rgb(0, 0, 0)" stroke-width="4.5" stroke-miterlimit="10" pointer-events="stroke"/><path d="M 764.02 524.02 L 740.15 516.06 L 752.08 512.08 L 756.06 500.15 Z" fill="rgb(0, 0, 0)" stroke="rgb(0, 0, 0)" stroke-width="4.5" stroke-miterlimit="10" pointer-events="all"/></g><g><path d="M 527.57 372.43 L 387.92 512.08" fill="none" stroke="rgb(0, 0, 0)" stroke-width="4.5" stroke-miterlimit="10" pointer-events="stroke"/><path d="M 375.98 524.02 L 383.94 500.15 L 387.92 512.08 L 399.85 516.06 Z" fill="rgb(0, 0, 0)" stroke="rgb(0, 0, 0)" stroke-width="4.5" stroke-miterlimit="10" pointer-events="all"/></g><g><path d="M 1332.43 132.43 L 1946.29 282.38" fill="none" stroke="rgb(0, 0, 0)" stroke-width="4.5" stroke-miterlimit="10" pointer-events="stroke"/><path d="M 1962.69 286.38 L 1938.16 291.97 L 1946.29 282.38 L 1943.5 270.11 Z" fill="rgb(0, 0, 0)" stroke="rgb(0, 0, 0)" stroke-width="4.5" stroke-miterlimit="10" pointer-events="all"/></g><g><path d="M 1247.57 132.43 L 633.71 282.38" fill="none" stroke="rgb(0, 0, 0)" stroke-width="4.5" stroke-miterlimit="10" pointer-events="stroke"/><path d="M 617.31 286.38 L 636.5 270.11 L 633.71 282.38 L 641.84 291.97 Z" fill="rgb(0, 0, 0)" stroke="rgb(0, 0, 0)" stroke-width="4.5" stroke-miterlimit="10" pointer-events="all"/></g><g><ellipse cx="90" cy="810" rx="60" ry="60" fill="rgb(255, 255, 255)" stroke="#000000" stroke-width="4.5" pointer-events="all"/></g><g><g fill="#000000" font-family="Verdana" font-weight="bold" text-anchor="middle" font-size="48px"><text x="89.5" y="830.5">E</text></g></g><g><ellipse cx="570" cy="810" rx="60" ry="60" fill="rgb(255, 255, 255)" stroke="#000000" stroke-width="4.5" pointer-events="all"/></g><g><g fill="#000000" font-family="Verdana" font-weight="bold" text-anchor="middle" font-size="48px"><text x="569.5" y="830.5">C</text></g></g><g><ellipse cx="1050" cy="810" rx="60" ry="60" fill="rgb(255, 255, 255)" stroke="#000000" stroke-width="4.5" pointer-events="all"/></g><g><g fill="#000000" font-family="Verdana" font-weight="bold" text-anchor="middle" font-size="48px"><text x="1049.5" y="830.5">D</text></g></g><g><ellipse cx="1530" cy="810" rx="60" ry="60" fill="rgb(255, 255, 255)" stroke="#000000" stroke-width="4.5" pointer-events="all"/></g><g><g fill="#000000" font-family="Verdana" font-weight="bold" text-anchor="middle" font-size="48px"><text x="1529.5" y="830.5">F</text></g></g><g><ellipse cx="330" cy="570" rx="60" ry="60" fill="rgb(255, 255, 255)" stroke="#000000" stroke-width="4.5" pointer-events="all"/></g><g><g fill="#000000" font-family="Verdana" font-weight="bold" text-anchor="middle" font-size="48px"><text x="329.5" y="590.5">A</text></g></g><g><ellipse cx="810" cy="570" rx="60" ry="60" fill="rgb(255, 255, 255)" stroke="#000000" stroke-width="4.5" pointer-events="all"/></g><g><g fill="#000000" font-family="Verdana" font-weight="bold" text-anchor="middle" font-size="48px"><text x="809.5" y="590.5">V</text></g></g><g><ellipse cx="2250" cy="570" rx="60" ry="60" fill="rgb(255, 255, 255)" stroke="#000000" stroke-width="4.5" pointer-events="all"/></g><g><g fill="#000000" font-family="Verdana" font-weight="bold" text-anchor="middle" font-size="48px"><text x="2249.5" y="590.5">N</text></g></g><g><ellipse cx="1770" cy="570" rx="60" ry="60" fill="rgb(255, 255, 255)" stroke="#000000" stroke-width="4.5" pointer-events="all"/></g><g><g fill="#000000" font-family="Verdana" font-weight="bold" text-anchor="middle" font-size="48px"><text x="1769.5" y="590.5">G</text></g></g><g><ellipse cx="570" cy="330" rx="60" ry="60" fill="rgb(255, 255, 255)" stroke="#000000" stroke-width="4.5" pointer-events="all"/></g><g><g fill="#000000" font-family="Verdana" font-weight="bold" text-anchor="middle" font-size="48px"><text x="569.5" y="350.5">J</text></g></g><g><ellipse cx="2010" cy="330" rx="60" ry="60" fill="rgb(255, 255, 255)" stroke="#000000" stroke-width="4.5" pointer-events="all"/></g><g><g fill="#000000" font-family="Verdana" font-weight="bold" text-anchor="middle" font-size="48px"><text x="2009.5" y="350.5">X</text></g></g><g><ellipse cx="1290" cy="90" rx="60" ry="60" fill="rgb(255, 255, 255)" stroke="#000000" stroke-width="4.5" pointer-events="all"/></g><g><g fill="#000000" font-family="Verdana" font-weight="bold" text-anchor="middle" font-size="48px"><text x="1289.5" y="110.5">H</text></g></g></g></svg>