<?xml version="1.0" encoding="UTF-8"?>
<!DOCTYPE svg PUBLIC "-//W3C//DTD SVG 1.1//EN" "http://www.w3.org/Graphics/SVG/1.1/DTD/svg11.dtd">
<svg xmlns="http://www.w3.org/2000/svg" xmlns:xlink="http://www.w3.org/1999/xlink" version="1.1" width="1140px" height="873px" viewBox="-0.5 -0.5 1140 873"><defs/><g><g><rect x="0" y="0" width="1140" height="870" fill="none" stroke="none" pointer-events="all"/></g><g><path d="M 852.43 372.43 L 992.08 512.08" fill="none" stroke="rgb(0, 0, 0)" stroke-width="4.5" stroke-miterlimit="10" pointer-events="stroke"/><path d="M 1004.02 524.02 L 980.15 516.06 L 992.08 512.08 L 996.06 500.15 Z" fill="rgb(0, 0, 0)" stroke="rgb(0, 0, 0)" stroke-width="4.5" stroke-miterlimit="10" pointer-events="all"/></g><g><path d="M 372.43 372.43 L 512.08 512.08" fill="none" stroke="rgb(0, 0, 0)" stroke-width="4.5" stroke-miterlimit="10" pointer-events="stroke"/><path d="M 524.02 524.02 L 500.15 516.06 L 512.08 512.08 L 516.06 500.15 Z" fill="rgb(0, 0, 0)" stroke="rgb(0, 0, 0)" stroke-width="4.5" stroke-miterlimit="10" pointer-events="all"/></g><g><path d="M 287.57 372.43 L 147.92 512.08" fill="none" stroke="rgb(0, 0, 0)" stroke-width="4.5" stroke-miterlimit="10" pointer-events="stroke"/><path d="M 135.98 524.02 L 143.94 500.15 L 147.92 512.08 L 159.85 516.06 Z" fill="rgb(0, 0, 0)" stroke="rgb(0, 0, 0)" stroke-width="4.5" stroke-miterlimit="10" pointer-events="all"/></g><g><path d="M 612.43 132.43 L 752.08 272.08" fill="none" stroke="rgb(0, 0, 0)" stroke-width="4.5" stroke-miterlimit="10" pointer-events="stroke"/><path d="M 764.02 284.02 L 740.15 276.06 L 752.08 272.08 L 756.06 260.15 Z" fill="rgb(0, 0, 0)" stroke="rgb(0, 0, 0)" stroke-width="4.5" stroke-miterlimit="10" pointer-events="all"/></g><g><path d="M 527.57 132.43 L 387.92 272.08" fill="none" stroke="rgb(0, 0, 0)" stroke-width="4.5" stroke-miterlimit="10" pointer-events="stroke"/><path d="M 375.98 284.02 L 383.94 260.15 L 387.92 272.08 L 399.85 276.06 Z" fill="rgb(0, 0, 0)" stroke="rgb(0, 0, 0)" stroke-width="4.5" stroke-miterlimit="10" pointer-events="all"/></g><g><ellipse cx="570" cy="90" rx="60" ry="60" fill="rgb(255, 255, 255)" stroke="#000000" stroke-width="4.5" pointer-events="all"/></g><g><g fill="#000000" font-family="Verdana" font-weight="bold" text-anchor="middle" font-size="48px"><text x="569.5" y="110.5">1</text></g></g><g><ellipse cx="330" cy="330" rx="60" ry="60" fill="rgb(255, 255, 255)" stroke="#000000" stroke-width="4.5" pointer-events="all"/></g><g><g fill="#000000" font-family="Verdana" font-weight="bold" text-anchor="middle" font-size="48px"><text x="329.5" y="350.5">2</text></g></g><g><ellipse cx="810" cy="330" rx="60" ry="60" fill="rgb(255, 255, 255)" stroke="#000000" stroke-width="4.5" pointer-events="all"/></g><g><g fill="#000000" font-family="Verdana" font-weight="bold" text-anchor="middle" font-size="48px"><text x="809.5" y="350.5">3</text></g></g><g><ellipse cx="1050" cy="570" rx="60" ry="60" fill="rgb(255, 255, 255)" stroke="#000000" stroke-width="4.5" pointer-events="all"/></g><g><g fill="#000000" font-family="Verdana" font-weight="bold" text-anchor="middle" font-size="48px"><text x="1049.5" y="590.5">6</text></g></g><g><ellipse cx="570" cy="570" rx="60" ry="60" fill="rgb(255, 255, 255)" stroke="#000000" stroke-width="4.5" pointer-events="all"/></g><g><g fill="#000000" font-family="Verdana" font-weight="bold" text-anchor="middle" font-size="48px"><text x="569.5" y="590.5">5</text></g></g><g><ellipse cx="90" cy="570" rx="60" ry="60" fill="rgb(255, 255, 255)" stroke="#000000" stroke-width="4.5" pointer-events="all"/></g><g><g fill="#000000" font-family="Verdana" font-weight="bold" text-anchor="middle" font-size="48px"><text x="89.5" y="590.5">4</text></g></g><g><ellipse cx="330" cy="810" rx="60" ry="60" fill="rgb(255, 255, 255)" stroke="#000000" stroke-width="4.5" pointer-events="all"/></g><g><g fill="#000000" font-family="Verdana" font-weight="bold" text-anchor="middle" font-size="48px"><text x="329.5" y="830.5">7</text></g></g><g><path d="M 527.57 612.43 L 387.92 752.08" fill="none" stroke="rgb(0, 0, 0)" stroke-width="4.5" stroke-miterlimit="10" pointer-events="stroke"/><path d="M 375.98 764.02 L 383.94 740.15 L 387.92 752.08 L 399.85 756.06 Z" fill="rgb(0, 0, 0)" stroke="rgb(0, 0, 0)" stroke-width="4.5" stroke-miterlimit="10" pointer-events="all"/></g></g></svg>