<?xml version="1.0" encoding="UTF-8"?>
<!DOCTYPE svg PUBLIC "-//W3C//DTD SVG 1.1//EN" "http://www.w3.org/Graphics/SVG/1.1/DTD/svg11.dtd">
<svg xmlns="http://www.w3.org/2000/svg" xmlns:xlink="http://www.w3.org/1999/xlink" version="1.1" width="785px" height="665px" viewBox="-0.5 -0.5 785 665"><defs/><g><path d="M 167.57 372.43 L 100.76 490.92" fill="none" stroke="rgb(0, 0, 0)" stroke-width="4.5" stroke-miterlimit="10" pointer-events="stroke"/><path d="M 92.47 505.62 L 93.72 480.49 L 100.76 490.92 L 113.32 491.54 Z" fill="rgb(0, 0, 0)" stroke="rgb(0, 0, 0)" stroke-width="4.5" stroke-miterlimit="10" pointer-events="all"/><path d="M 252.43 372.43 L 319.24 490.92" fill="none" stroke="rgb(0, 0, 0)" stroke-width="4.5" stroke-miterlimit="10" pointer-events="stroke"/><path d="M 327.53 505.62 L 306.68 491.54 L 319.24 490.92 L 326.28 480.49 Z" fill="rgb(0, 0, 0)" stroke="rgb(0, 0, 0)" stroke-width="4.5" stroke-miterlimit="10" pointer-events="all"/><path d="M 647.57 372.43 L 580.76 490.92" fill="none" stroke="rgb(0, 0, 0)" stroke-width="4.5" stroke-miterlimit="10" pointer-events="stroke"/><path d="M 572.47 505.62 L 573.72 480.49 L 580.76 490.92 L 593.32 491.54 Z" fill="rgb(0, 0, 0)" stroke="rgb(0, 0, 0)" stroke-width="4.5" stroke-miterlimit="10" pointer-events="all"/><path d="M 492.43 132.43 L 632.08 272.08" fill="none" stroke="rgb(0, 0, 0)" stroke-width="4.5" stroke-miterlimit="10" pointer-events="stroke"/><path d="M 644.02 284.02 L 620.15 276.06 L 632.08 272.08 L 636.06 260.15 Z" fill="rgb(0, 0, 0)" stroke="rgb(0, 0, 0)" stroke-width="4.5" stroke-miterlimit="10" pointer-events="all"/><path d="M 407.57 132.43 L 267.92 272.08" fill="none" stroke="rgb(0, 0, 0)" stroke-width="4.5" stroke-miterlimit="10" pointer-events="stroke"/><path d="M 255.98 284.02 L 263.94 260.15 L 267.92 272.08 L 279.85 276.06 Z" fill="rgb(0, 0, 0)" stroke="rgb(0, 0, 0)" stroke-width="4.5" stroke-miterlimit="10" pointer-events="all"/><ellipse cx="450" cy="90" rx="60" ry="60" fill="#ffffff" stroke="rgb(0, 0, 0)" stroke-width="4.5" pointer-events="all"/><g fill="rgb(0, 0, 0)" font-family="Verdana" font-weight="bold" text-anchor="middle" font-size="48px"><text x="449.5" y="110.5">25</text></g><ellipse cx="210" cy="330" rx="60" ry="60" fill="#ffffff" stroke="rgb(0, 0, 0)" stroke-width="4.5" pointer-events="all"/><g fill="rgb(0, 0, 0)" font-family="Verdana" font-weight="bold" text-anchor="middle" font-size="48px"><text x="209.5" y="350.5">22</text></g><ellipse cx="90" cy="570" rx="60" ry="60" fill="#ffffff" stroke="rgb(0, 0, 0)" stroke-width="4.5" pointer-events="all"/><g fill="rgb(0, 0, 0)" font-family="Verdana" font-weight="bold" text-anchor="middle" font-size="48px"><text x="89.5" y="590.5">15</text></g><ellipse cx="330" cy="570" rx="60" ry="60" fill="#ffffff" stroke="rgb(0, 0, 0)" stroke-width="4.5" pointer-events="all"/><g fill="rgb(0, 0, 0)" font-family="Verdana" font-weight="bold" text-anchor="middle" font-size="48px"><text x="329.5" y="590.5">28</text></g><ellipse cx="690" cy="330" rx="60" ry="60" fill="#ffffff" stroke="rgb(0, 0, 0)" stroke-width="4.5" pointer-events="all"/><g fill="rgb(0, 0, 0)" font-family="Verdana" font-weight="bold" text-anchor="middle" font-size="48px"><text x="689.5" y="350.5">40</text></g><ellipse cx="570" cy="570" rx="60" ry="60" fill="#ffffff" stroke="rgb(0, 0, 0)" stroke-width="4.5" pointer-events="all"/><g fill="rgb(0, 0, 0)" font-family="Verdana" font-weight="bold" text-anchor="middle" font-size="48px"><text x="569.5" y="590.5">30</text></g><rect x="0" y="0" width="780" height="660" fill="none" stroke="none" pointer-events="all"/></g></svg>